<?xml version="1.0" encoding="utf-8"?>
<!-- Generator: Adobe Illustrator 24.3.0, SVG Export Plug-In . SVG Version: 6.00 Build 0)  -->
<svg version="1.1" id="Layer_1" xmlns="http://www.w3.org/2000/svg" xmlns:xlink="http://www.w3.org/1999/xlink" x="0px" y="0px"
	 viewBox="0 0 129 40" style="enable-background:new 0 0 129 40;" xml:space="preserve">
<style type="text/css">
	.st0{display:none;}
	.st1{display:inline;fill:#A6A4A4;}
	.st2{display:inline;}
	.st3{fill:#FFFFFF;}
	.st4{fill:#A6A4A4;}
	.st5{fill:#FFFFFF;stroke:#FFFFFF;stroke-width:0.2;stroke-miterlimit:10;}
	.st6{fill:url(#SVGID_1_);}
	.st7{fill:url(#SVGID_2_);}
	.st8{fill:url(#SVGID_3_);}
	.st9{fill:url(#SVGID_4_);}
	.st10{opacity:0.2;enable-background:new    ;}
	.st11{opacity:0.12;enable-background:new    ;}
	.st12{opacity:0.25;fill:#FFFFFF;enable-background:new    ;}
</style>
<g class="st0">
	<path class="st1" d="M123.4,38.6H5.4c-2.5,0-4.4-2-4.4-4.4V5.4C1,3,3,1,5.4,1h117.9c2.4,0,4.5,2,4.5,4.4v28.7
		C127.9,36.6,125.8,38.6,123.4,38.6L123.4,38.6z"/>
	<path class="st2" d="M127,34.1c0,2-1.6,3.6-3.6,3.6H5.4c-2,0-3.6-1.6-3.6-3.6V5.4c0-2,1.6-3.6,3.6-3.6h117.9c2,0,3.6,1.6,3.6,3.6
		L127,34.1L127,34.1z"/>
	<g class="st2">
		<g>
			<path class="st3" d="M29.3,19.6c0-3,2.5-4.5,2.6-4.6c-1.4-2.1-3.6-2.4-4.4-2.4c-1.8-0.2-3.6,1.1-4.6,1.1c-1,0-2.4-1.1-4-1.1
				c-2,0-3.9,1.2-4.9,3c-2.1,3.7-0.5,9.1,1.5,12.1c1,1.5,2.2,3.1,3.8,3c1.5-0.1,2.1-1,3.9-1c1.8,0,2.4,1,4,0.9
				c1.6,0,2.7-1.5,3.7-2.9c1.2-1.7,1.7-3.3,1.7-3.4C32.5,24.4,29.3,23.2,29.3,19.6z"/>
			<path class="st3" d="M26.3,10.7c0.8-1,1.4-2.4,1.2-3.8c-1.2,0.1-2.7,0.8-3.5,1.8c-0.8,0.9-1.4,2.3-1.3,3.7
				C24.1,12.5,25.5,11.7,26.3,10.7z"/>
		</g>
	</g>
	<g class="st2">
		<path class="st3" d="M51.4,30.6h-2.1l-1.2-3.7H44l-1.1,3.7h-2.1l4-12.5h2.5L51.4,30.6z M47.8,25.4l-1.1-3.3
			c-0.1-0.3-0.3-1.1-0.6-2.4h0c-0.1,0.5-0.3,1.3-0.6,2.4l-1,3.3H47.8z"/>
		<path class="st3" d="M61.8,26c0,1.5-0.4,2.7-1.2,3.6c-0.7,0.8-1.7,1.2-2.8,1.2c-1.2,0-2-0.4-2.6-1.3h0v4.8h-2v-9.7c0-1,0-2-0.1-3
			h1.8L55,23h0c0.7-1.1,1.7-1.6,3-1.6c1.1,0,2,0.4,2.7,1.3C61.4,23.5,61.8,24.6,61.8,26z M59.7,26.1c0-0.9-0.2-1.6-0.6-2.2
			c-0.4-0.6-1-0.9-1.7-0.9c-0.5,0-0.9,0.2-1.3,0.5c-0.4,0.3-0.7,0.8-0.8,1.3c-0.1,0.2-0.1,0.5-0.1,0.6v1.5c0,0.7,0.2,1.2,0.6,1.7
			c0.4,0.5,0.9,0.7,1.6,0.7c0.8,0,1.3-0.3,1.8-0.9C59.5,27.8,59.7,27,59.7,26.1z"/>
		<path class="st3" d="M72.1,26c0,1.5-0.4,2.7-1.2,3.6c-0.7,0.8-1.7,1.2-2.8,1.2c-1.2,0-2-0.4-2.6-1.3h0v4.8h-2v-9.7c0-1,0-2-0.1-3
			h1.8l0.1,1.4h0c0.7-1.1,1.7-1.6,3-1.6c1.1,0,2,0.4,2.7,1.3C71.8,23.5,72.1,24.6,72.1,26z M70.1,26.1c0-0.9-0.2-1.6-0.6-2.2
			c-0.4-0.6-1-0.9-1.7-0.9c-0.5,0-0.9,0.2-1.3,0.5c-0.4,0.3-0.7,0.8-0.8,1.3c-0.1,0.2-0.1,0.5-0.1,0.6v1.5c0,0.7,0.2,1.2,0.6,1.7
			c0.4,0.5,0.9,0.7,1.6,0.7c0.8,0,1.3-0.3,1.8-0.9C69.9,27.8,70.1,27,70.1,26.1z"/>
		<path class="st3" d="M83.7,27.1c0,1.1-0.4,1.9-1.1,2.6c-0.8,0.7-1.9,1.1-3.4,1.1c-1.3,0-2.4-0.3-3.2-0.8l0.5-1.7
			c0.9,0.5,1.8,0.8,2.9,0.8c0.8,0,1.3-0.2,1.8-0.5c0.4-0.3,0.6-0.8,0.6-1.4c0-0.5-0.2-0.9-0.5-1.3c-0.3-0.3-0.9-0.7-1.7-1
			c-2.2-0.8-3.3-2-3.3-3.6c0-1,0.4-1.9,1.2-2.5c0.8-0.7,1.8-1,3.1-1c1.1,0,2.1,0.2,2.8,0.6l-0.5,1.6c-0.7-0.4-1.5-0.6-2.4-0.6
			c-0.7,0-1.3,0.2-1.7,0.5c-0.3,0.3-0.5,0.7-0.5,1.1c0,0.5,0.2,0.9,0.6,1.2c0.3,0.3,0.9,0.6,1.8,1c1.1,0.4,1.9,0.9,2.4,1.5
			C83.5,25.5,83.7,26.2,83.7,27.1z"/>
		<path class="st3" d="M90.4,23.1h-2.2v4.4c0,1.1,0.4,1.7,1.2,1.7c0.4,0,0.7,0,0.9-0.1l0.1,1.5c-0.4,0.1-0.9,0.2-1.6,0.2
			c-0.8,0-1.4-0.2-1.9-0.7c-0.4-0.5-0.7-1.3-0.7-2.4v-4.5h-1.3v-1.5h1.3v-1.7l2-0.6v2.2h2.2L90.4,23.1z"/>
		<path class="st3" d="M100.3,26c0,1.4-0.4,2.5-1.2,3.4c-0.8,0.9-1.9,1.4-3.3,1.4c-1.3,0-2.4-0.4-3.2-1.3c-0.8-0.9-1.2-2-1.2-3.3
			c0-1.4,0.4-2.5,1.2-3.4c0.8-0.9,1.9-1.3,3.3-1.3c1.3,0,2.4,0.4,3.2,1.3C99.9,23.6,100.3,24.7,100.3,26z M98.3,26.1
			c0-0.8-0.2-1.5-0.5-2.1c-0.4-0.7-1-1.1-1.8-1.1c-0.8,0-1.4,0.4-1.8,1.1c-0.4,0.6-0.5,1.3-0.5,2.2c0,0.8,0.2,1.5,0.5,2.1
			c0.4,0.7,1,1.1,1.8,1.1c0.8,0,1.4-0.4,1.8-1.1C98.1,27.6,98.3,26.9,98.3,26.1z"/>
		<path class="st3" d="M106.8,23.4c-0.2,0-0.4-0.1-0.6-0.1c-0.7,0-1.2,0.3-1.6,0.8c-0.3,0.5-0.5,1.1-0.5,1.8v4.7h-2l0-6.2
			c0-1,0-2-0.1-2.8h1.7l0.1,1.7h0.1c0.2-0.6,0.5-1.1,1-1.4c0.4-0.3,0.9-0.5,1.4-0.5c0.2,0,0.4,0,0.5,0L106.8,23.4z"/>
		<path class="st3" d="M115.8,25.7c0,0.4,0,0.7-0.1,0.9h-6c0,0.9,0.3,1.6,0.9,2c0.5,0.4,1.2,0.6,2,0.6c0.9,0,1.7-0.1,2.4-0.4
			l0.3,1.4c-0.9,0.4-1.9,0.6-3,0.6c-1.4,0-2.5-0.4-3.3-1.2c-0.8-0.8-1.2-1.9-1.2-3.3c0-1.4,0.4-2.5,1.1-3.4c0.8-1,1.8-1.4,3.2-1.4
			c1.3,0,2.3,0.5,3,1.4C115.5,23.6,115.8,24.5,115.8,25.7z M113.9,25.2c0-0.6-0.1-1.1-0.4-1.5c-0.3-0.6-0.9-0.8-1.6-0.8
			c-0.7,0-1.2,0.3-1.6,0.8c-0.3,0.4-0.5,1-0.6,1.6L113.9,25.2L113.9,25.2z"/>
	</g>
	<g class="st2">
		<g>
			<path class="st3" d="M47.1,10.4c0,1.1-0.3,1.9-1,2.5c-0.6,0.5-1.5,0.8-2.6,0.8c-0.6,0-1,0-1.4-0.1v-6c0.5-0.1,1.1-0.1,1.7-0.1
				c1.1,0,1.9,0.2,2.4,0.7C46.8,8.7,47.1,9.4,47.1,10.4z M46.1,10.4c0-0.7-0.2-1.3-0.6-1.7c-0.4-0.4-0.9-0.6-1.7-0.6
				c-0.3,0-0.6,0-0.8,0.1v4.6c0.1,0,0.3,0,0.7,0c0.8,0,1.3-0.2,1.7-0.6C45.9,11.8,46.1,11.2,46.1,10.4z"/>
			<path class="st3" d="M52.6,11.4c0,0.7-0.2,1.2-0.6,1.7c-0.4,0.5-0.9,0.7-1.6,0.7c-0.7,0-1.2-0.2-1.6-0.6c-0.4-0.4-0.6-1-0.6-1.6
				c0-0.7,0.2-1.2,0.6-1.7s0.9-0.7,1.6-0.7c0.7,0,1.2,0.2,1.6,0.6C52.4,10.2,52.6,10.7,52.6,11.4z M51.6,11.4c0-0.4-0.1-0.8-0.3-1.1
				c-0.2-0.4-0.5-0.5-0.9-0.5c-0.4,0-0.7,0.2-0.9,0.5c-0.2,0.3-0.3,0.6-0.3,1.1c0,0.4,0.1,0.8,0.3,1.1c0.2,0.4,0.5,0.5,0.9,0.5
				c0.4,0,0.7-0.2,0.9-0.5C51.5,12.2,51.6,11.8,51.6,11.4z"/>
			<path class="st3" d="M60,9.2l-1.4,4.4h-0.9l-0.6-1.9c-0.1-0.5-0.3-1-0.4-1.4h0c-0.1,0.5-0.2,1-0.4,1.4l-0.6,1.9h-0.9l-1.3-4.4h1
				l0.5,2.1c0.1,0.5,0.2,1,0.3,1.4h0c0.1-0.4,0.2-0.8,0.4-1.4l0.6-2.1h0.8l0.6,2.1c0.1,0.5,0.3,1,0.4,1.5h0c0.1-0.5,0.2-0.9,0.3-1.5
				L59,9.2L60,9.2L60,9.2z"/>
			<path class="st3" d="M65.1,13.6h-1v-2.5c0-0.8-0.3-1.2-0.9-1.2c-0.3,0-0.5,0.1-0.7,0.3c-0.2,0.2-0.3,0.5-0.3,0.8v2.6h-1v-3.2
				c0-0.4,0-0.8,0-1.3h0.9l0,0.7h0c0.1-0.2,0.3-0.4,0.5-0.5c0.3-0.2,0.6-0.2,0.9-0.2c0.4,0,0.8,0.1,1,0.4c0.3,0.3,0.5,0.8,0.5,1.5
				V13.6z"/>
			<path class="st3" d="M67.8,13.6h-1V7.2h1V13.6z"/>
			<path class="st3" d="M73.6,11.4c0,0.7-0.2,1.2-0.6,1.7c-0.4,0.5-0.9,0.7-1.6,0.7c-0.7,0-1.2-0.2-1.6-0.6c-0.4-0.4-0.6-1-0.6-1.6
				c0-0.7,0.2-1.2,0.6-1.7s0.9-0.7,1.6-0.7c0.7,0,1.2,0.2,1.6,0.6C73.4,10.2,73.6,10.7,73.6,11.4z M72.6,11.4c0-0.4-0.1-0.8-0.3-1.1
				c-0.2-0.4-0.5-0.5-0.9-0.5c-0.4,0-0.7,0.2-0.9,0.5c-0.2,0.3-0.3,0.6-0.3,1.1c0,0.4,0.1,0.8,0.3,1.1c0.2,0.4,0.5,0.5,0.9,0.5
				c0.4,0,0.7-0.2,0.9-0.5C72.5,12.2,72.6,11.8,72.6,11.4z"/>
			<path class="st3" d="M78.4,13.6h-0.9l-0.1-0.5h0c-0.3,0.4-0.7,0.6-1.3,0.6c-0.4,0-0.8-0.1-1-0.4c-0.2-0.2-0.3-0.5-0.3-0.9
				c0-0.5,0.2-1,0.7-1.2c0.5-0.3,1.1-0.4,1.9-0.4v-0.1c0-0.6-0.3-0.9-0.9-0.9c-0.4,0-0.8,0.1-1.2,0.3l-0.2-0.6
				c0.4-0.3,0.9-0.4,1.5-0.4c1.2,0,1.7,0.6,1.7,1.8v1.6C78.3,13,78.3,13.4,78.4,13.6z M77.4,12.1v-0.7c-1.1,0-1.6,0.3-1.6,0.9
				c0,0.2,0.1,0.4,0.2,0.5c0.1,0.1,0.3,0.2,0.5,0.2c0.2,0,0.4-0.1,0.6-0.2c0.2-0.1,0.3-0.3,0.3-0.5C77.3,12.2,77.4,12.2,77.4,12.1z"
				/>
			<path class="st3" d="M84,13.6h-0.9l0-0.7h0c-0.3,0.5-0.8,0.8-1.4,0.8c-0.5,0-1-0.2-1.3-0.6c-0.4-0.4-0.5-1-0.5-1.6
				c0-0.7,0.2-1.3,0.6-1.7c0.4-0.4,0.8-0.6,1.4-0.6c0.6,0,1,0.2,1.2,0.6h0V7.2h1v5.3C83.9,12.9,83.9,13.3,84,13.6z M83,11.8V11
				c0-0.1,0-0.2,0-0.3c-0.1-0.2-0.2-0.4-0.4-0.6c-0.2-0.2-0.4-0.2-0.7-0.2c-0.4,0-0.7,0.1-0.9,0.4c-0.2,0.3-0.3,0.7-0.3,1.1
				c0,0.4,0.1,0.8,0.3,1.1c0.2,0.3,0.5,0.4,0.9,0.4c0.3,0,0.6-0.1,0.8-0.4C82.9,12.3,83,12.1,83,11.8z"/>
			<path class="st3" d="M92.4,11.4c0,0.7-0.2,1.2-0.6,1.7c-0.4,0.5-0.9,0.7-1.6,0.7c-0.6,0-1.2-0.2-1.6-0.6c-0.4-0.4-0.6-1-0.6-1.6
				c0-0.7,0.2-1.2,0.6-1.7s0.9-0.7,1.6-0.7c0.6,0,1.2,0.2,1.6,0.6C92.2,10.2,92.4,10.7,92.4,11.4z M91.4,11.4c0-0.4-0.1-0.8-0.3-1.1
				c-0.2-0.4-0.5-0.5-0.9-0.5c-0.4,0-0.7,0.2-0.9,0.5c-0.2,0.3-0.3,0.6-0.3,1.1c0,0.4,0.1,0.8,0.3,1.1c0.2,0.4,0.5,0.5,0.9,0.5
				c0.4,0,0.7-0.2,0.9-0.5C91.3,12.2,91.4,11.8,91.4,11.4z"/>
			<path class="st3" d="M97.7,13.6h-1v-2.5c0-0.8-0.3-1.2-0.9-1.2c-0.3,0-0.5,0.1-0.7,0.3s-0.3,0.5-0.3,0.8v2.6h-1v-3.2
				c0-0.4,0-0.8,0-1.3h0.9l0,0.7h0c0.1-0.2,0.3-0.4,0.5-0.5c0.3-0.2,0.6-0.2,0.9-0.2c0.4,0,0.8,0.1,1,0.4c0.3,0.3,0.5,0.8,0.5,1.5
				V13.6z"/>
			<path class="st3" d="M104.3,9.9h-1.1v2.2c0,0.5,0.2,0.8,0.6,0.8c0.2,0,0.3,0,0.4,0l0,0.7c-0.2,0.1-0.5,0.1-0.8,0.1
				c-0.4,0-0.7-0.1-0.9-0.4c-0.2-0.2-0.3-0.6-0.3-1.2V9.9h-0.6V9.2h0.6V8.4l1-0.3v1.1h1.1L104.3,9.9L104.3,9.9z"/>
			<path class="st3" d="M109.5,13.6h-1v-2.5c0-0.8-0.3-1.2-0.9-1.2c-0.5,0-0.8,0.2-0.9,0.7c0,0.1,0,0.2,0,0.4v2.7h-1V7.2h1v2.7h0
				c0.3-0.5,0.8-0.7,1.3-0.7c0.4,0,0.7,0.1,1,0.4c0.3,0.3,0.5,0.8,0.5,1.5L109.5,13.6z"/>
			<path class="st3" d="M114.9,11.2c0,0.2,0,0.3,0,0.4h-3c0,0.4,0.2,0.8,0.4,1c0.2,0.2,0.6,0.3,1,0.3c0.4,0,0.8-0.1,1.2-0.2l0.2,0.7
				c-0.4,0.2-0.9,0.3-1.5,0.3c-0.7,0-1.2-0.2-1.6-0.6c-0.4-0.4-0.6-0.9-0.6-1.6c0-0.7,0.2-1.2,0.5-1.7c0.4-0.5,0.9-0.7,1.5-0.7
				c0.6,0,1.1,0.2,1.4,0.7C114.8,10.2,114.9,10.6,114.9,11.2z M114,10.9c0-0.3-0.1-0.5-0.2-0.8c-0.2-0.3-0.4-0.4-0.8-0.4
				c-0.3,0-0.6,0.1-0.8,0.4c-0.2,0.2-0.3,0.5-0.3,0.8L114,10.9z"/>
		</g>
	</g>
</g>
<g>
	<g>
		<path d="M123.2,38.6H5.7c-2.6,0-4.7-2.1-4.7-4.7V5.7C1,3.1,3.1,1,5.7,1h117.5c2.6,0,4.7,2.1,4.7,4.7v28.2
			C127.9,36.5,125.8,38.6,123.2,38.6z"/>
	</g>
	<g>
		<g>
			<path class="st4" d="M123.2,1.8c2.2,0,3.9,1.8,3.9,3.9v28.2c0,2.2-1.8,3.9-3.9,3.9H5.7c-2.2,0-3.9-1.8-3.9-3.9V5.7
				c0-2.2,1.8-3.9,3.9-3.9H123.2 M123.2,1H5.7C3.1,1,1,3.1,1,5.7v28.2c0,2.6,2.1,4.7,4.7,4.7h117.5c2.6,0,4.7-2.1,4.7-4.7V5.7
				C127.9,3.1,125.8,1,123.2,1L123.2,1z"/>
		</g>
	</g>
	<g>
		<path class="st5" d="M45.6,10.6c0,0.8-0.2,1.4-0.7,1.9c-0.5,0.6-1.2,0.8-2.1,0.8c-0.8,0-1.5-0.3-2.1-0.8c-0.6-0.6-0.9-1.3-0.9-2.1
			c0-0.8,0.3-1.5,0.9-2.1c0.6-0.6,1.3-0.8,2.1-0.8c0.4,0,0.8,0.1,1.2,0.2c0.4,0.2,0.7,0.4,0.9,0.6l-0.5,0.5
			c-0.4-0.4-0.9-0.7-1.5-0.7c-0.6,0-1.1,0.2-1.5,0.6c-0.4,0.4-0.6,1-0.6,1.6c0,0.7,0.2,1.2,0.6,1.6c0.4,0.4,0.9,0.6,1.5,0.6
			c0.6,0,1.2-0.2,1.6-0.6c0.3-0.3,0.4-0.7,0.5-1.1h-2v-0.7h2.7C45.6,10.3,45.6,10.5,45.6,10.6z"/>
		<path class="st5" d="M49.9,8.3h-2.6v1.8h2.3v0.7h-2.3v1.8h2.6v0.7h-3.3V7.6h3.3V8.3z"/>
		<path class="st5" d="M53,13.2h-0.7V8.3h-1.6V7.6h3.9v0.7H53V13.2z"/>
		<path class="st5" d="M57.3,13.2V7.6h0.7v5.6H57.3z"/>
		<path class="st5" d="M61.3,13.2h-0.7V8.3H59V7.6h3.9v0.7h-1.6V13.2z"/>
		<path class="st5" d="M70.2,12.5c-0.6,0.6-1.2,0.9-2.1,0.9c-0.8,0-1.5-0.3-2.1-0.9c-0.6-0.6-0.8-1.3-0.8-2.1c0-0.8,0.3-1.5,0.8-2.1
			c0.6-0.6,1.2-0.9,2.1-0.9c0.8,0,1.5,0.3,2.1,0.9c0.6,0.6,0.8,1.3,0.8,2.1C71,11.2,70.7,11.9,70.2,12.5z M66.6,12
			c0.4,0.4,0.9,0.6,1.5,0.6c0.6,0,1.1-0.2,1.5-0.6c0.4-0.4,0.6-1,0.6-1.6c0-0.7-0.2-1.2-0.6-1.6c-0.4-0.4-0.9-0.6-1.5-0.6
			c-0.6,0-1.1,0.2-1.5,0.6c-0.4,0.4-0.6,1-0.6,1.6C66,11.1,66.2,11.6,66.6,12z"/>
		<path class="st5" d="M72,13.2V7.6h0.9l2.7,4.4h0l0-1.1V7.6h0.7v5.6h-0.8l-2.9-4.6h0l0,1.1v3.5H72z"/>
	</g>
	<path class="st3" d="M65,21.4c-2.2,0-4,1.7-4,4c0,2.3,1.8,4,4,4c2.2,0,4-1.7,4-4C69,23.1,67.2,21.4,65,21.4z M65,27.9
		c-1.2,0-2.3-1-2.3-2.4c0-1.4,1-2.4,2.3-2.4s2.3,1,2.3,2.4C67.3,26.9,66.2,27.9,65,27.9z M56.3,21.4c-2.2,0-4,1.7-4,4
		c0,2.3,1.8,4,4,4c2.2,0,4-1.7,4-4C60.3,23.1,58.5,21.4,56.3,21.4z M56.3,27.9c-1.2,0-2.3-1-2.3-2.4c0-1.4,1-2.4,2.3-2.4
		c1.2,0,2.3,1,2.3,2.4C58.5,26.9,57.5,27.9,56.3,27.9z M45.9,22.7v1.7h4.1c-0.1,1-0.4,1.7-0.9,2.1c-0.6,0.6-1.5,1.2-3.1,1.2
		c-2.5,0-4.5-2-4.5-4.5s2-4.5,4.5-4.5c1.3,0,2.3,0.5,3.1,1.2l1.2-1.2c-1-1-2.4-1.7-4.3-1.7c-3.4,0-6.3,2.8-6.3,6.2
		c0,3.4,2.9,6.2,6.3,6.2c1.8,0,3.2-0.6,4.3-1.7c1.1-1.1,1.5-2.7,1.5-4c0-0.4,0-0.8-0.1-1.1H45.9z M88.5,24c-0.3-0.9-1.3-2.5-3.4-2.5
		c-2.1,0-3.8,1.6-3.8,4c0,2.2,1.7,4,4,4c1.8,0,2.9-1.1,3.3-1.8l-1.4-0.9c-0.5,0.7-1.1,1.1-2,1.1c-0.9,0-1.5-0.4-1.9-1.2l5.3-2.2
		L88.5,24z M83,25.3c0-1.5,1.2-2.3,2.1-2.3c0.7,0,1.3,0.3,1.5,0.8L83,25.3z M78.7,29.2h1.8V17.4h-1.8V29.2z M75.8,22.3L75.8,22.3
		c-0.5-0.5-1.2-0.9-2.2-0.9c-2,0-3.8,1.8-3.8,4c0,2.2,1.8,4,3.8,4c1,0,1.7-0.4,2.1-0.9h0.1v0.6c0,1.5-0.8,2.3-2.1,2.3
		c-1.1,0-1.7-0.8-2-1.4l-1.5,0.6c0.4,1.1,1.6,2.4,3.5,2.4c2.1,0,3.8-1.2,3.8-4.2v-7.2h-1.7V22.3z M73.8,27.9c-1.2,0-2.2-1-2.2-2.4
		c0-1.4,1-2.4,2.2-2.4c1.2,0,2.1,1,2.1,2.4C75.9,26.8,75,27.9,73.8,27.9z M96.7,17.4h-4.2v11.7h1.8v-4.5h2.4c1.9,0,3.9-1.4,3.9-3.6
		S98.6,17.4,96.7,17.4z M96.7,23.1h-2.5v-4h2.5c1.3,0,2.1,1.1,2.1,2C98.8,22,98,23.1,96.7,23.1z M107.6,21.4c-1.3,0-2.6,0.6-3.1,1.8
		l1.6,0.6c0.3-0.6,1-0.9,1.6-0.9c0.9,0,1.8,0.5,1.8,1.5v0.1c-0.3-0.2-1-0.5-1.8-0.5c-1.7,0-3.4,0.9-3.4,2.6c0,1.6,1.4,2.6,2.9,2.6
		c1.2,0,1.8-0.5,2.2-1.1h0.1v0.9h1.7v-4.5C111.1,22.6,109.6,21.4,107.6,21.4z M107.4,27.9c-0.6,0-1.4-0.3-1.4-1c0-0.9,1-1.3,1.9-1.3
		c0.8,0,1.1,0.2,1.6,0.4C109.3,27.1,108.4,27.9,107.4,27.9z M117.3,21.7l-2,5.1h-0.1l-2.1-5.1h-1.9l3.1,7.1l-1.8,4h1.8l4.8-11.1
		H117.3z M101.5,29.2h1.8V17.4h-1.8V29.2z"/>
	<g>
		
			<linearGradient id="SVGID_1_" gradientUnits="userSpaceOnUse" x1="21.4879" y1="1072.8143" x2="5.7153" y2="1057.0417" gradientTransform="matrix(1 0 0 -1 0 1082)">
			<stop  offset="0" style="stop-color:#4896D1"/>
			<stop  offset="6.574450e-03" style="stop-color:#4998D2"/>
			<stop  offset="0.2601" style="stop-color:#41B8EA"/>
			<stop  offset="0.5122" style="stop-color:#3FC6F1"/>
			<stop  offset="0.7604" style="stop-color:#55C8E8"/>
			<stop  offset="1" style="stop-color:#5AC8E7"/>
		</linearGradient>
		<path class="st6" d="M10.8,8.1c-0.3,0.3-0.4,0.7-0.4,1.3v20.8c0,0.6,0.2,1,0.4,1.3l0.1,0.1l11.6-11.6v-0.1v-0.1L10.8,8.1L10.8,8.1
			z"/>
		
			<linearGradient id="SVGID_2_" gradientUnits="userSpaceOnUse" x1="32.7984" y1="1062.202" x2="10.0575" y2="1062.202" gradientTransform="matrix(1 0 0 -1 0 1082)">
			<stop  offset="0" style="stop-color:#FDDF00"/>
			<stop  offset="0.4087" style="stop-color:#FDBC11"/>
			<stop  offset="0.7754" style="stop-color:#F9A31A"/>
			<stop  offset="1" style="stop-color:#F89B1C"/>
		</linearGradient>
		<path class="st7" d="M26.4,23.8l-3.9-3.9v-0.1v-0.1l3.9-3.9l0.1,0l4.6,2.6c1.3,0.7,1.3,2,0,2.7L26.4,23.8L26.4,23.8z"/>
		
			<linearGradient id="SVGID_3_" gradientUnits="userSpaceOnUse" x1="24.3329" y1="1060.0454" x2="2.9441" y2="1038.6566" gradientTransform="matrix(1 0 0 -1 0 1082)">
			<stop  offset="0" style="stop-color:#EE3F49"/>
			<stop  offset="1" style="stop-color:#C11E63"/>
		</linearGradient>
		<path class="st8" d="M26.5,23.8l-4-4L10.8,31.5c0.4,0.5,1.1,0.5,2,0.1L26.5,23.8"/>
		
			<linearGradient id="SVGID_4_" gradientUnits="userSpaceOnUse" x1="7.8581" y1="1080.8344" x2="17.4091" y2="1071.2833" gradientTransform="matrix(1 0 0 -1 0 1082)">
			<stop  offset="0" style="stop-color:#319F71"/>
			<stop  offset="6.850000e-02" style="stop-color:#2BA670"/>
			<stop  offset="0.4762" style="stop-color:#4AB870"/>
			<stop  offset="0.8009" style="stop-color:#5DBC6A"/>
			<stop  offset="1" style="stop-color:#66BD68"/>
		</linearGradient>
		<path class="st9" d="M26.5,15.8L12.8,8c-0.8-0.5-1.5-0.4-2,0.1l11.7,11.7L26.5,15.8z"/>
		<g>
			<path class="st10" d="M26.4,23.7l-13.6,7.8c-0.8,0.4-1.4,0.4-1.9,0l0,0l-0.1,0.1l0,0l0.1,0.1l0,0c0.4,0.4,1.1,0.4,1.9,0
				L26.4,23.7L26.4,23.7z"/>
			<path class="st11" d="M10.8,31.4c-0.3-0.3-0.4-0.7-0.4-1.3v0.1c0,0.6,0.2,1,0.4,1.3V31.4L10.8,31.4z"/>
		</g>
		<path class="st11" d="M31.1,21l-4.7,2.7l0.1,0.1l4.6-2.6c0.7-0.4,1-0.9,1-1.4l0,0C32,20.2,31.7,20.7,31.1,21z"/>
		<path class="st12" d="M12.8,8.2l18.3,10.4c0.6,0.3,0.9,0.8,1,1.2l0,0c0-0.5-0.3-1-1-1.4L12.8,8c-1.3-0.7-2.4-0.1-2.4,1.4v0.1
			C10.4,8,11.4,7.4,12.8,8.2z"/>
	</g>
</g>
</svg>
