<?xml version="1.0" encoding="utf-8"?>
<!-- Generator: Adobe Illustrator 25.1.0, SVG Export Plug-In . SVG Version: 6.00 Build 0)  -->
<svg version="1.1" id="Layer_1" xmlns="http://www.w3.org/2000/svg" xmlns:xlink="http://www.w3.org/1999/xlink" x="0px" y="0px"
	 viewBox="0 0 107.3 25.2" style="enable-background:new 0 0 107.3 25.2;" xml:space="preserve">
<style type="text/css">
	.st0{fill:#FFFFFF;}
	.st1{fill:#FFFFFF;stroke:#FFFFFF;stroke-miterlimit:10;}
</style>
<g>
	<g>
		<g>
			<path class="st0" d="M16.2,17.6c-1.4,1.7-3.8,2.7-6.1,2.7c-4.4,0-7.8-3.1-7.8-7.7c0-4.1,2.8-7.7,7.2-7.7c4.1,0,7,3.4,7,7.6
				c0,0.4,0,0.8-0.1,1.1H6.2c0.2,2.1,1.9,3.5,4,3.5c1.7,0,3-0.9,3.7-1.7L16.2,17.6z M12.5,10.7c-0.1-1.3-1.3-2.6-2.9-2.6
				s-3,1.3-3.2,2.6C6.4,10.7,12.5,10.7,12.5,10.7z"/>
			<path class="st0" d="M18.7,20V5.2h3.8v1.2c1.1-0.9,2.5-1.5,4.2-1.5c2,0,3.9,0.9,5.1,2.4c1,1.2,1.5,2.7,1.5,5.2V20h-4v-7.8
				c0-1.5-0.3-2.2-0.9-2.8c-0.5-0.5-1.3-0.8-2.2-0.8c-1.7,0-3.1,1.1-3.6,1.8V20H18.7z"/>
			<path class="st0" d="M71.8,20H68v-1.2c-1.2,1-2.6,1.5-4.1,1.5c-2.2,0-4.3-1-5.6-2.5c-1.2-1.3-1.9-3.2-1.9-5.2
				c0-4.4,3.2-7.7,7.3-7.7c1.7,0,3.2,0.5,4.3,1.5V5.2h3.8V20z M67.9,10.4c-0.8-1.1-2.1-1.8-3.7-1.8c-2.3,0-3.8,1.9-3.8,4.1
				c0,2.3,1.7,4,3.9,4c1.5,0,2.8-0.7,3.6-1.8V10.4z"/>
			<path class="st0" d="M100.2,20h-3.8v-1.2c-1.2,1-2.6,1.5-4.1,1.5c-2.2,0-4.3-1-5.6-2.5c-1.2-1.3-1.9-3.2-1.9-5.2
				c0-4.4,3.2-7.7,7.3-7.7c1.7,0,3.2,0.5,4.3,1.5V5.2h3.8C100.2,5.2,100.2,20,100.2,20z M96.2,10.4c-0.8-1.1-2.1-1.8-3.7-1.8
				c-2.3,0-3.8,1.9-3.8,4.1c0,2.3,1.7,4,3.9,4c1.5,0,2.8-0.7,3.6-1.8V10.4z"/>
			<path class="st0" d="M56.3,5c-0.4-0.1-0.8-0.1-1.3-0.1c-1.8,0-3.4,0.7-4.3,1.8V5.2h-3.8V20h4v-9.3c0.5-0.9,1.9-2.1,3.6-2.1
				c0.6,0,1.2,0.1,1.4,0.2l0.5,0.1V5H56.3z"/>
			<rect x="39.7" y="15.9" class="st0" width="4" height="4.1"/>
			<polygon class="st0" points="35.8,15.9 39.7,15.9 39.7,8.5 44.6,8.5 44.6,5.2 39.7,5.2 39.7,1.1 35.8,1.1 			"/>
			<rect x="78.7" y="15.9" class="st0" width="4" height="4.1"/>
			<polygon class="st0" points="74.8,15.9 78.7,15.9 78.7,8.5 83.6,8.5 83.6,5.2 78.7,5.2 78.7,1.1 74.8,1.1 			"/>
		</g>
	</g>
	<path class="st1" d="M600.5-207.8"/>
	<path class="st1" d="M-497.9-207.8"/>
</g>
</svg>
